<?xml version="1.0" encoding="utf-8"?>
<!-- Generator: Adobe Illustrator 17.0.0, SVG Export Plug-In . SVG Version: 6.00 Build 0)  -->
<!DOCTYPE svg PUBLIC "-//W3C//DTD SVG 1.1//EN" "http://www.w3.org/Graphics/SVG/1.1/DTD/svg11.dtd">
<svg version="1.1" id="Layer_1" xmlns="http://www.w3.org/2000/svg" xmlns:xlink="http://www.w3.org/1999/xlink" x="0px" y="0px"
	 width="187.087px" height="142.8px" viewBox="0 0 187.087 142.8" enable-background="new 0 0 187.087 142.8" xml:space="preserve">
<g>
	<polygon fill-rule="evenodd" clip-rule="evenodd" fill="#FFFFFF" points="-2.835,-24.995 189.921,-24.995 189.921,167.761 
		-2.835,167.761 -2.835,-24.995 	"/>
	<polygon fill-rule="evenodd" clip-rule="evenodd" points="0.249,124.179 4.849,123.664 21.462,-0.006 0.249,-0.006 0.249,124.179 	
		"/>
	<polygon fill-rule="evenodd" clip-rule="evenodd" points="62.794,0.012 32.38,0.012 7.077,120.083 26.246,78.945 26.246,67.376 
		32.635,65.319 62.794,0.012 	"/>
	<path fill-rule="evenodd" clip-rule="evenodd" d="M0,133.287v9.513h187.087l-28.37-11.57c-3.067-1.286-8.945-3.086-17.124-2.828
		L0,133.287L0,133.287z"/>
	<path fill-rule="evenodd" clip-rule="evenodd" d="M0,129.52v-3.085l145.171-13.627c4.089-0.257,8.69-2.571,17.891,3.6
		l24.025,17.484v5.142l-26.325-18.255c-4.089-2.571-6.645-4.114-15.079-3.342L0,129.52L0,129.52z"/>
	<polygon fill-rule="evenodd" clip-rule="evenodd" points="186.832,130.322 176.865,119.523 169.453,-0.033 186.832,-0.033 
		186.832,130.322 	"/>
	<polygon fill-rule="evenodd" clip-rule="evenodd" points="174.644,112.148 144.997,40.157 150.875,27.816 140.907,30.901 
		128.384,0.048 156.498,0.048 174.644,112.148 	"/>
	<path fill-rule="evenodd" clip-rule="evenodd" d="M140.064,49.88l-6.39,13.37l18.657,26.997l-16.613,3.085l-9.968-14.141
		l-8.69,17.484l-18.658,3.857l17.635-35.738l-14.823-21.34l15.335-4.628l7.412,9.77l7.668-15.426L114.251,0H76.68L41.665,62.478
		l11.501-3.857v13.627l-13.801,4.371v10.799l13.801-4.371v13.37l-13.801,4.371v10.799l-13.291,2.571V90.76L8.184,122.899
		l142.36-22.368c4.345-0.771,9.201-1.543,13.546,3.599l11.501,13.113L140.064,49.88L140.064,49.88z M75.693,104.253
		C54.99,102.197,56.78,80.342,57.291,72.886c1.534-17.998,15.591-24.683,24.536-24.683c23.514,0.257,23.003,25.711,20.191,35.995
		C96.139,102.711,83.104,104.768,75.693,104.253L75.693,104.253z"/>
	<path fill-rule="evenodd" clip-rule="evenodd" d="M80.59,60.501c-6.394-0.101-9.055,6.137-9.361,14.632
		c-0.306,8.495,0.123,15.685,7.801,16.012c7.678,0.327,8.688-10.757,8.851-14.619C88.043,72.664,89.054,61.58,80.59,60.501
		L80.59,60.501z"/>
</g>
</svg>
